# xmcd
#
# Track frame offsets:
#	150
#	16585
#	28344
#	38852
#	51772
#	61745
#	78890
#	90702
#	106305
#	116287
#	127715
#	138170
#	154432
#	172372
#	182430
#
# Disc length: 2626 seconds
# Revision: 3
# Processed by: cddbd v1.5.2PL0 Copyright (c) Steve Scherf et al.
# Submitted via: dBpowerAMP V12.0
#
DISCID=b60a400f
DTITLE=Various Artist - Ralph Emery Presents Country Roads: God Bless The U.S.A
DYEAR=2006
DGENRE=Country
TTITLE0=Cal Smith - Country Bumpkin
TTITLE1=Tammy Wynette - I Don't Wanna Play House
TTITLE2=Jim Ed Brown - Pop A Top
TTITLE3=Merle Haggard and The Strangers - Swinging Doors
TTITLE4=Loretta Lynn - Fist City
TTITLE5=Johnny Cash - A Boy Named Sue
TTITLE6=Johnny Paycheck - Take This Job And Shove It
TTITLE7=Kris Kristofferson - Why Me Lord
TTITLE8=Charley Pride - Is Anybody Goin' To San Antone
TTITLE9=Waylon Jennings and Willie Nelson - Mammas Don't Let Your Babies Grow Up To Be Cowboys
TTITLE10=Connie Smith - Once A Day
TTITLE11=Ronnie Milsap - It Was Almost Like A Song
TTITLE12=Bobby Goldsboro - Honey
TTITLE13=Sonny James - You're The Only World I Know
TTITLE14=Lee Greenwood - God Bless The U.S.A.
EXTD=
EXTT0=
EXTT1=
EXTT2=
EXTT3=
EXTT4=
EXTT5=
EXTT6=
EXTT7=
EXTT8=
EXTT9=
EXTT10=
EXTT11=
EXTT12=
EXTT13=
EXTT14=
PLAYORDER=
